HIERARCHY
ROOT Hips
{
 OFFSET 0.000000 0.000000 0.000000
 CHANNELS 6 Xposition Yposition Zposition Yrotation Xrotation Zrotation
 JOINT Chest
 {
  OFFSET 0.000000 9.585900 0.002600
  CHANNELS 3 Yrotation Xrotation Zrotation
  JOINT Chest2
  {
   OFFSET 0.000000 9.601200 -0.005300
   CHANNELS 3 Yrotation Xrotation Zrotation
   JOINT Chest3
   {
    OFFSET 0.000000 9.561800 0.000000
    CHANNELS 3 Yrotation Xrotation Zrotation
    JOINT Chest4
    {
     OFFSET 0.000000 9.552100 0.000000
     CHANNELS 3 Yrotation Xrotation Zrotation
     JOINT Neck
     {
      OFFSET 0.000000 14.453000 0.000000
      CHANNELS 3 Yrotation Xrotation Zrotation
      JOINT Head
      {
       OFFSET 0.000000 8.936500 -0.011300
       CHANNELS 3 Yrotation Xrotation Zrotation
       End Site
       {
        OFFSET 0.000000 17.073600 -0.006000
       }
      }
     }
     JOINT RightCollar
     {
      OFFSET -2.921100 9.558500 0.000000
      CHANNELS 3 Yrotation Xrotation Zrotation
      JOINT RightShoulder
      {
       OFFSET -13.519700 0.000000 0.000000
       CHANNELS 3 Yrotation Xrotation Zrotation
       JOINT RightElbow
       {
        OFFSET 0.000000 -29.696600 0.000000
        CHANNELS 3 Yrotation Xrotation Zrotation
        JOINT RightWrist
        {
         OFFSET 0.000000 -24.004700 0.000000
         CHANNELS 3 Yrotation Xrotation Zrotation
         End Site
         {
          OFFSET 0.000000 -17.728500 0.000000
         }
        }
       }
      }
     }
     JOINT LeftCollar
     {
      OFFSET 2.921100 9.558500 0.000000
      CHANNELS 3 Yrotation Xrotation Zrotation
      JOINT LeftShoulder
      {
       OFFSET 13.519700 0.000000 0.000000
       CHANNELS 3 Yrotation Xrotation Zrotation
       JOINT LeftElbow
       {
        OFFSET 0.000000 -29.696600 0.000000
        CHANNELS 3 Yrotation Xrotation Zrotation
        JOINT LeftWrist
        {
         OFFSET 0.000000 -24.004700 0.000000
         CHANNELS 3 Yrotation Xrotation Zrotation
         End Site
         {
          OFFSET 0.000000 -17.728500 0.000000
         }
        }
       }
      }
     }
    }
   }
  }
 }
 JOINT RightHip
 {
  OFFSET -7.771700 -0.012900 -0.001300
  CHANNELS 3 Yrotation Xrotation Zrotation
  JOINT RightKnee
  {
   OFFSET 0.000000 -40.869800 0.001200
   CHANNELS 3 Yrotation Xrotation Zrotation
   JOINT RightAnkle
   {
    OFFSET 0.000000 -39.717900 0.002100
    CHANNELS 3 Yrotation Xrotation Zrotation
    JOINT RightToe
    {
     OFFSET 0.000000 -4.965400 11.033500
     CHANNELS 3 Yrotation Xrotation Zrotation
     End Site
     {
      OFFSET 0.000000 -1.423100 5.872300
     }
    }
   }
  }
 }
 JOINT LeftHip
 {
  OFFSET 7.771700 -0.012900 -0.001300
  CHANNELS 3 Yrotation Xrotation Zrotation
  JOINT LeftKnee
  {
   OFFSET 0.000000 -40.869800 0.001200
   CHANNELS 3 Yrotation Xrotation Zrotation
   JOINT LeftAnkle
   {
    OFFSET 0.000000 -39.717900 0.002100
    CHANNELS 3 Yrotation Xrotation Zrotation
    JOINT LeftToe
    {
     OFFSET 0.000000 -4.965400 11.033500
     CHANNELS 3 Yrotation Xrotation Zrotation
     End Site
     {
      OFFSET 0.000000 -1.423100 5.872300
     }
    }
   }
  }
 }
}
MOTION
Frames: 11
Frame Time: 0.008333
0.000000 85.388000 0.000000 0.000000 -5.767877 0.000000 0.000000 11.653817 0.000000 0.000000 -5.885947 0.000000 0.000000 -0.000000 0.000000 0.000000 -0.000000 0.000000 0.000000 12.528835 0.000000 0.000000 0.711642 0.000000 0.000000 -0.000000 0.000000 0.000000 0.000000 -90.000000 0.000000 -2.309062 0.000000 0.000000 2.309062 0.000000 0.000000 -0.000000 0.000000 0.000000 -0.000000 90.000000 0.000000 -2.309062 0.000000 0.000000 2.309062 0.000000 0.000000 8.520406 0.000000 0.000000 1.905762 0.000000 -0.000000 -4.658285 0.000000 0.000000 -0.000000 0.000000 0.000000 8.520406 0.000000 0.000000 1.905762 0.000000 -0.000000 -4.658285 0.000000 0.000000 -0.000000 0.000000
-118.540547 58.021939 102.042600 175.760316 -32.482319 -1.342146 1.750914 21.716607 3.196085 0.171198 2.965395 0.376888 0.285832 4.821352 0.618098 1.393645 18.464577 2.590006 -2.210267 10.196366 -2.394404 -3.194317 -16.875406 -3.634502 3.451761 -2.550428 -0.589075 17.518448 -21.259435 -21.740842 123.050200 -74.924794 -73.147979 11.926161 -17.763475 -40.141397 -7.583385 -3.317907 -4.785946 -0.853592 -10.434940 -2.138943 37.316438 -42.761378 -71.121528 7.369112 -12.985506 27.856902 2.623324 -42.787595 -0.192319 -12.061841 66.553697 -14.617675 7.185477 24.023953 5.423630 -0.187156 -16.239233 1.242774 -5.658926 -40.175731 3.035579 25.082002 64.643487 22.770213 -16.828538 5.896349 -2.610826 -0.020481 -0.064007 -0.002702
-118.541633 58.022053 102.042581 175.752819 -32.469437 -1.343684 1.754781 21.713836 3.202996 0.171467 2.967869 0.376938 0.273993 4.862679 0.632011 1.399395 18.431432 2.578247 -2.285385 10.237628 -2.436663 -3.310923 -16.833917 -3.703692 3.464868 -2.529431 -0.581079 17.516521 -21.265546 -21.746238 122.993946 -74.979653 -73.095367 11.927918 -17.740591 -40.088902 -7.585389 -3.320106 -4.788975 -0.851172 -10.441770 -2.140205 37.298421 -42.692939 -71.067040 7.372688 -12.993149 27.871202 2.628060 -42.799683 -0.189824 -12.075442 66.550803 -14.624198 7.183803 24.025483 5.421757 -0.182387 -16.239195 1.239362 -5.667589 -40.191814 3.042409 25.101406 64.645336 22.787969 -16.825257 5.901138 -2.608516 -0.022574 -0.068999 -0.007689
-118.543710 58.023207 102.040475 175.756258 -32.466177 -1.345859 1.747235 21.720760 3.205063 0.155307 2.999363 0.388975 0.282969 4.845301 0.625321 1.402124 18.427652 2.575298 -2.355209 10.274947 -2.474899 -3.418168 -16.787707 -3.768049 3.471438 -2.539151 -0.587952 17.521948 -21.250772 -21.731670 122.952931 -74.992811 -73.064393 11.891850 -17.720931 -40.043147 -7.587393 -3.323787 -4.792595 -0.859630 -10.420064 -2.137530 37.310133 -42.652855 -71.041337 7.370565 -13.001836 27.872334 2.648289 -42.802198 -0.214594 -12.121970 66.555262 -14.640834 7.196990 24.015765 5.416892 -0.181573 -16.236417 1.235404 -5.673749 -40.196887 3.039829 25.113110 64.644833 22.801642 -16.824777 5.904994 -2.610579 -0.022114 -0.072377 -0.008490
-118.544785 58.024299 102.038085 175.750487 -32.461352 -1.349888 1.731947 21.743017 3.215433 0.165293 2.987096 0.384192 0.279247 4.854934 0.629639 1.390943 18.456521 2.596353 -2.408963 10.266682 -2.541306 -3.513045 -16.747372 -3.829152 3.503162 -2.555635 -0.614092 17.538747 -21.260633 -21.748689 122.892798 -75.014397 -73.017282 11.898460 -17.709086 -40.025068 -7.569737 -3.352899 -4.820360 -0.878424 -10.390865 -2.128152 37.352402 -42.645253 -71.057460 7.350630 -13.022067 27.850979 2.671335 -42.806152 -0.230381 -12.148954 66.558982 -14.637635 7.196747 24.007382 5.410128 -0.174881 -16.232532 1.229947 -5.675585 -40.203584 3.045462 25.129460 64.646693 22.822492 -16.823226 5.905386 -2.614678 -0.019890 -0.075311 -0.007484
-118.545949 58.025572 102.034907 175.743882 -32.458086 -1.352889 1.727193 21.749572 3.222421 0.164295 2.988354 0.384897 0.277614 4.856864 0.630639 1.384742 18.459660 2.599037 -2.460537 10.282886 -2.583804 -3.593871 -16.718000 -3.888154 3.522718 -2.529365 -0.610621 17.558886 -21.286114 -21.775959 122.776664 -75.067725 -72.905357 11.901406 -17.694029 -39.989205 -7.564704 -3.340353 -4.819954 -0.877897 -10.407393 -2.132345 37.357861 -42.612520 -71.044098 7.357570 -13.021493 27.867920 2.698829 -42.805797 -0.248558 -12.154360 66.566293 -14.613785 7.193273 23.986727 5.402235 -0.174486 -16.220684 1.228993 -5.672245 -40.203264 3.046281 25.139962 64.645058 22.840497 -16.816413 5.897300 -2.618474 -0.022152 -0.071793 -0.006187
-118.548162 58.026994 102.030854 175.740670 -32.457161 -1.350782 1.723230 21.753193 3.221724 0.158633 2.992182 0.386346 0.276255 4.857456 0.631125 1.386420 18.457831 2.597589 -2.511287 10.297825 -2.617742 -3.663687 -16.696060 -3.943059 3.529153 -2.524049 -0.609396 17.566959 -21.289840 -21.788235 122.722770 -75.107904 -72.850688 11.903589 -17.679791 -39.962011 -7.562854 -3.338131 -4.822469 -0.883355 -10.408190 -2.124801 37.366333 -42.586700 -71.040029 7.363610 -13.017880 27.883300 2.726851 -42.805549 -0.274085 -12.143343 66.576514 -14.577272 7.176621 23.973397 5.391790 -0.173430 -16.213974 1.229857 -5.665889 -40.201958 3.035136 25.154964 64.643172 22.864959 -16.814238 5.890380 -2.622515 -0.016062 -0.070062 -0.006473
-118.549854 58.028185 102.026801 175.735451 -32.454656 -1.349933 1.722323 21.754174 3.223131 0.157057 2.993742 0.386199 0.273297 4.858212 0.631651 1.387436 18.456862 2.597999 -2.554441 10.308767 -2.651118 -3.723246 -16.676089 -3.992985 3.533754 -2.518492 -0.609897 17.571826 -21.298655 -21.798465 122.698274 -75.138194 -72.822246 11.923406 -17.666125 -39.954706 -7.570182 -3.327743 -4.826819 -0.883884 -10.417805 -2.116498 37.378505 -42.576107 -71.042608 7.364627 -13.012766 27.897950 2.747196 -42.808287 -0.292547 -12.133393 66.590247 -14.542204 7.159744 23.954787 5.375861 -0.167204 -16.204684 1.229645 -5.662036 -40.202919 3.028208 25.174156 64.641449 22.892864 -16.815182 5.884913 -2.626827 -0.018624 -0.068883 -0.007740
-118.551799 58.028479 102.023946 175.727539 -32.442983 -1.345452 1.720341 21.749807 3.220502 0.162873 2.988303 0.385437 0.266484 4.861858 0.631510 1.372004 18.458762 2.599538 -2.566738 10.312714 -2.681499 -3.775908 -16.652649 -4.044000 3.552087 -2.517036 -0.616722 17.576647 -21.306484 -21.804319 122.718358 -75.139399 -72.846645 11.928118 -17.654127 -39.947324 -7.552376 -3.332746 -4.837026 -0.891327 -10.414843 -2.109093 37.391155 -42.578460 -71.051555 7.369640 -13.010145 27.906822 2.762678 -42.823571 -0.307150 -12.125587 66.599127 -14.523127 7.159255 23.954817 5.375813 -0.169211 -16.208107 1.226336 -5.662048 -40.213545 3.026940 25.191596 64.641138 22.910863 -16.813417 5.881264 -2.629926 -0.017576 -0.068140 -0.007412
-118.554172 58.028647 102.021202 175.723117 -32.430834 -1.338687 1.711009 21.747815 3.211308 0.165814 2.984410 0.386571 0.266361 4.862078 0.627748 1.370581 18.456966 2.598456 -2.568091 10.312612 -2.688485 -3.828445 -16.619197 -4.099205 3.555765 -2.516990 -0.615315 17.578145 -21.312573 -21.807158 122.755087 -75.120828 -72.884051 11.912707 -17.650268 -39.942712 -7.546659 -3.335715 -4.839477 -0.896104 -10.411298 -2.100569 37.403914 -42.588396 -71.068390 7.360048 -13.008524 27.884764 2.762968 -42.839553 -0.322662 -12.087747 66.609663 -14.483886 7.163724 23.956810 5.379252 -0.177489 -16.213536 1.221344 -5.657588 -40.226182 3.022191 25.196217 64.642130 22.915220 -16.815546 5.882802 -2.631006 -0.013146 -0.070736 -0.006815
-118.555349 58.028941 102.018527 175.721423 -32.420519 -1.338454 1.708679 21.740874 3.209058 0.161678 2.987629 0.384805 0.267810 4.862026 0.626179 1.375161 18.452070 2.600706 -2.599453 10.327305 -2.714842 -3.850153 -16.593413 -4.127646 3.556430 -2.517217 -0.614510 17.574708 -21.321652 -21.802660 122.754555 -75.107368 -72.879460 11.911769 -17.648812 -39.943819 -7.544744 -3.337111 -4.840186 -0.904548 -10.408113 -2.094301 37.421604 -42.604603 -71.091030 7.362749 -13.005047 27.889308 2.752846 -42.851587 -0.323285 -12.076920 66.616298 -14.471441 7.166427 23.954772 5.372188 -0.175104 -16.215567 1.219831 -5.663273 -40.236991 3.025100 25.195980 64.643416 22.915541 -16.817859 5.886086 -2.634485 -0.006008 -0.074016 -0.006963
